<svg xmlns="http://www.w3.org/2000/svg" viewBox="0 0 1800 1000" width="1800" height="1000"><defs><linearGradient id="bg" x1="0" y1="0" x2="0" y2="1"><stop offset="0%" stop-color="#07121f"/><stop offset="100%" stop-color="#1f4067"/></linearGradient><filter id="sh" x="-20%" y="-20%" width="140%" height="140%"><feDropShadow dx="0" dy="12" stdDeviation="16" flood-color="#000" flood-opacity=".35"/></filter><filter id="gl"><feGaussianBlur stdDeviation="18"/></filter></defs><rect width="100%" height="100%" fill="url(#bg)"/><line x1="0" y1="0" x2="0" y2="1000" stroke="rgba(255,255,255,.08)" stroke-width="1" stroke-linecap="round" opacity="0.25" filter="none"/><line x1="90" y1="0" x2="90" y2="1000" stroke="rgba(255,255,255,.08)" stroke-width="1" stroke-linecap="round" opacity="0.25" filter="none"/><line x1="180" y1="0" x2="180" y2="1000" stroke="rgba(255,255,255,.08)" stroke-width="1" stroke-linecap="round" opacity="0.25" filter="none"/><line x1="270" y1="0" x2="270" y2="1000" stroke="rgba(255,255,255,.08)" stroke-width="1" stroke-linecap="round" opacity="0.25" filter="none"/><line x1="360" y1="0" x2="360" y2="1000" stroke="rgba(255,255,255,.08)" stroke-width="1" stroke-linecap="round" opacity="0.25" filter="none"/><line x1="450" y1="0" x2="450" y2="1000" stroke="rgba(255,255,255,.08)" stroke-width="1" stroke-linecap="round" opacity="0.25" filter="none"/><line x1="540" y1="0" x2="540" y2="1000" stroke="rgba(255,255,255,.08)" stroke-width="1" stroke-linecap="round" opacity="0.25" filter="none"/><line x1="630" y1="0" x2="630" y2="1000" stroke="rgba(255,255,255,.08)" stroke-width="1" stroke-linecap="round" opacity="0.25" filter="none"/><line x1="720" y1="0" x2="720" y2="1000" stroke="rgba(255,255,255,.08)" stroke-width="1" stroke-linecap="round" opacity="0.25" filter="none"/><line x1="810" y1="0" x2="810" y2="1000" stroke="rgba(255,255,255,.08)" stroke-width="1" stroke-linecap="round" opacity="0.25" filter="none"/><line x1="900" y1="0" x2="900" y2="1000" stroke="rgba(255,255,255,.08)" stroke-width="1" stroke-linecap="round" opacity="0.25" filter="none"/><line x1="990" y1="0" x2="990" y2="1000" stroke="rgba(255,255,255,.08)" stroke-width="1" stroke-linecap="round" opacity="0.25" filter="none"/><line x1="1080" y1="0" x2="1080" y2="1000" stroke="rgba(255,255,255,.08)" stroke-width="1" stroke-linecap="round" opacity="0.25" filter="none"/><line x1="1170" y1="0" x2="1170" y2="1000" stroke="rgba(255,255,255,.08)" stroke-width="1" stroke-linecap="round" opacity="0.25" filter="none"/><line x1="1260" y1="0" x2="1260" y2="1000" stroke="rgba(255,255,255,.08)" stroke-width="1" stroke-linecap="round" opacity="0.25" filter="none"/><line x1="1350" y1="0" x2="1350" y2="1000" stroke="rgba(255,255,255,.08)" stroke-width="1" stroke-linecap="round" opacity="0.25" filter="none"/><line x1="1440" y1="0" x2="1440" y2="1000" stroke="rgba(255,255,255,.08)" stroke-width="1" stroke-linecap="round" opacity="0.25" filter="none"/><line x1="1530" y1="0" x2="1530" y2="1000" stroke="rgba(255,255,255,.08)" stroke-width="1" stroke-linecap="round" opacity="0.25" filter="none"/><line x1="1620" y1="0" x2="1620" y2="1000" stroke="rgba(255,255,255,.08)" stroke-width="1" stroke-linecap="round" opacity="0.25" filter="none"/><line x1="1710" y1="0" x2="1710" y2="1000" stroke="rgba(255,255,255,.08)" stroke-width="1" stroke-linecap="round" opacity="0.25" filter="none"/><line x1="0" y1="0" x2="1800" y2="0" stroke="rgba(255,255,255,.08)" stroke-width="1" stroke-linecap="round" opacity="0.2" filter="none"/><line x1="0" y1="90" x2="1800" y2="90" stroke="rgba(255,255,255,.08)" stroke-width="1" stroke-linecap="round" opacity="0.2" filter="none"/><line x1="0" y1="180" x2="1800" y2="180" stroke="rgba(255,255,255,.08)" stroke-width="1" stroke-linecap="round" opacity="0.2" filter="none"/><line x1="0" y1="270" x2="1800" y2="270" stroke="rgba(255,255,255,.08)" stroke-width="1" stroke-linecap="round" opacity="0.2" filter="none"/><line x1="0" y1="360" x2="1800" y2="360" stroke="rgba(255,255,255,.08)" stroke-width="1" stroke-linecap="round" opacity="0.2" filter="none"/><line x1="0" y1="450" x2="1800" y2="450" stroke="rgba(255,255,255,.08)" stroke-width="1" stroke-linecap="round" opacity="0.2" filter="none"/><line x1="0" y1="540" x2="1800" y2="540" stroke="rgba(255,255,255,.08)" stroke-width="1" stroke-linecap="round" opacity="0.2" filter="none"/><line x1="0" y1="630" x2="1800" y2="630" stroke="rgba(255,255,255,.08)" stroke-width="1" stroke-linecap="round" opacity="0.2" filter="none"/><line x1="0" y1="720" x2="1800" y2="720" stroke="rgba(255,255,255,.08)" stroke-width="1" stroke-linecap="round" opacity="0.2" filter="none"/><line x1="0" y1="810" x2="1800" y2="810" stroke="rgba(255,255,255,.08)" stroke-width="1" stroke-linecap="round" opacity="0.2" filter="none"/><line x1="0" y1="900" x2="1800" y2="900" stroke="rgba(255,255,255,.08)" stroke-width="1" stroke-linecap="round" opacity="0.2" filter="none"/><line x1="0" y1="990" x2="1800" y2="990" stroke="rgba(255,255,255,.08)" stroke-width="1" stroke-linecap="round" opacity="0.2" filter="none"/><rect x="70" y="70" width="320" height="56" rx="22" fill="#f0b858" stroke="none" stroke-width="0" opacity="1" filter="url(#sh)"/><text x="94" y="106" font-family="Microsoft YaHei,Segoe UI,sans-serif" font-size="26" font-weight="700" fill="#fff" text-anchor="start" opacity="1"><tspan x="94" dy="0">30 ?????</tspan></text><text x="400" y="106" font-family="Microsoft YaHei,Segoe UI,sans-serif" font-size="24" font-weight="600" fill="#eaf5ff" text-anchor="start" opacity="1"><tspan x="400" dy="0">?? ? ?? ? ??</tspan></text><rect x="110" y="190" width="330" height="670" rx="28" fill="rgba(17,42,67,.94)" stroke="rgba(255,255,255,.12)" stroke-width="1" opacity="1" filter="url(#sh)"/><rect x="134" y="212" width="138" height="42" rx="16" fill="#4adcff" stroke="none" stroke-width="0" opacity="1" filter="url(#sh)"/><text x="155" y="240" font-family="Microsoft YaHei,Segoe UI,sans-serif" font-size="24" font-weight="700" fill="#fff" text-anchor="start" opacity="1"><tspan x="155" dy="0">??</tspan></text><rect x="134" y="286" width="282" height="130" rx="24" fill="rgba(236,242,248,.98)" stroke="rgba(210,224,236,.98)" stroke-width="1" opacity="1" filter="url(#sh)"/><rect x="152" y="306" width="50" height="34" rx="12" fill="#4adcff" stroke="none" stroke-width="0" opacity="1" filter="url(#sh)"/><text x="167" y="329" font-family="Microsoft YaHei,Segoe UI,sans-serif" font-size="18" font-weight="700" fill="#fff" text-anchor="start" opacity="1"><tspan x="167" dy="0">1</tspan></text><rect x="218" y="310" width="156" height="18" rx="8" fill="#4adcff" stroke="none" stroke-width="0" opacity="0.4" filter="url(#sh)"/><rect x="218" y="344" width="114" height="14" rx="7" fill="#dfe7ef" stroke="none" stroke-width="0" opacity="1" filter="url(#sh)"/><rect x="218" y="370" width="84" height="14" rx="7" fill="#dfe7ef" stroke="none" stroke-width="0" opacity="1" filter="url(#sh)"/><text x="218" y="404" font-family="Microsoft YaHei,Segoe UI,sans-serif" font-size="16" font-weight="500" fill="#1f3448" text-anchor="start" opacity="1"><tspan x="218" dy="0">??????????</tspan></text><rect x="134" y="434" width="282" height="130" rx="24" fill="rgba(236,242,248,.98)" stroke="rgba(210,224,236,.98)" stroke-width="1" opacity="1" filter="url(#sh)"/><rect x="152" y="454" width="50" height="34" rx="12" fill="#4adcff" stroke="none" stroke-width="0" opacity="1" filter="url(#sh)"/><text x="167" y="477" font-family="Microsoft YaHei,Segoe UI,sans-serif" font-size="18" font-weight="700" fill="#fff" text-anchor="start" opacity="1"><tspan x="167" dy="0">2</tspan></text><rect x="218" y="458" width="156" height="18" rx="8" fill="#4adcff" stroke="none" stroke-width="0" opacity="0.4" filter="url(#sh)"/><rect x="218" y="492" width="114" height="14" rx="7" fill="#dfe7ef" stroke="none" stroke-width="0" opacity="1" filter="url(#sh)"/><rect x="218" y="518" width="84" height="14" rx="7" fill="#dfe7ef" stroke="none" stroke-width="0" opacity="1" filter="url(#sh)"/><text x="218" y="552" font-family="Microsoft YaHei,Segoe UI,sans-serif" font-size="16" font-weight="500" fill="#1f3448" text-anchor="start" opacity="1"><tspan x="218" dy="0">??????????</tspan></text><rect x="134" y="582" width="282" height="130" rx="24" fill="rgba(236,242,248,.98)" stroke="rgba(210,224,236,.98)" stroke-width="1" opacity="1" filter="url(#sh)"/><rect x="152" y="602" width="50" height="34" rx="12" fill="#4adcff" stroke="none" stroke-width="0" opacity="1" filter="url(#sh)"/><text x="167" y="625" font-family="Microsoft YaHei,Segoe UI,sans-serif" font-size="18" font-weight="700" fill="#fff" text-anchor="start" opacity="1"><tspan x="167" dy="0">3</tspan></text><rect x="218" y="606" width="156" height="18" rx="8" fill="#4adcff" stroke="none" stroke-width="0" opacity="0.4" filter="url(#sh)"/><rect x="218" y="640" width="114" height="14" rx="7" fill="#dfe7ef" stroke="none" stroke-width="0" opacity="1" filter="url(#sh)"/><rect x="218" y="666" width="84" height="14" rx="7" fill="#dfe7ef" stroke="none" stroke-width="0" opacity="1" filter="url(#sh)"/><text x="218" y="700" font-family="Microsoft YaHei,Segoe UI,sans-serif" font-size="16" font-weight="500" fill="#1f3448" text-anchor="start" opacity="1"><tspan x="218" dy="0">????????????</tspan></text><rect x="630" y="190" width="330" height="670" rx="28" fill="rgba(17,42,67,.94)" stroke="rgba(255,255,255,.12)" stroke-width="1" opacity="1" filter="url(#sh)"/><rect x="654" y="212" width="138" height="42" rx="16" fill="#7f62ff" stroke="none" stroke-width="0" opacity="1" filter="url(#sh)"/><text x="675" y="240" font-family="Microsoft YaHei,Segoe UI,sans-serif" font-size="24" font-weight="700" fill="#fff" text-anchor="start" opacity="1"><tspan x="675" dy="0">??</tspan></text><rect x="654" y="286" width="282" height="130" rx="24" fill="rgba(236,242,248,.98)" stroke="rgba(210,224,236,.98)" stroke-width="1" opacity="1" filter="url(#sh)"/><rect x="672" y="306" width="50" height="34" rx="12" fill="#7f62ff" stroke="none" stroke-width="0" opacity="1" filter="url(#sh)"/><text x="687" y="329" font-family="Microsoft YaHei,Segoe UI,sans-serif" font-size="18" font-weight="700" fill="#fff" text-anchor="start" opacity="1"><tspan x="687" dy="0">1</tspan></text><rect x="738" y="310" width="156" height="18" rx="8" fill="#7f62ff" stroke="none" stroke-width="0" opacity="0.4" filter="url(#sh)"/><rect x="738" y="344" width="114" height="14" rx="7" fill="#dfe7ef" stroke="none" stroke-width="0" opacity="1" filter="url(#sh)"/><rect x="738" y="370" width="84" height="14" rx="7" fill="#dfe7ef" stroke="none" stroke-width="0" opacity="1" filter="url(#sh)"/><text x="738" y="404" font-family="Microsoft YaHei,Segoe UI,sans-serif" font-size="16" font-weight="500" fill="#1f3448" text-anchor="start" opacity="1"><tspan x="738" dy="0">????????</tspan></text><rect x="654" y="434" width="282" height="130" rx="24" fill="rgba(236,242,248,.98)" stroke="rgba(210,224,236,.98)" stroke-width="1" opacity="1" filter="url(#sh)"/><rect x="672" y="454" width="50" height="34" rx="12" fill="#7f62ff" stroke="none" stroke-width="0" opacity="1" filter="url(#sh)"/><text x="687" y="477" font-family="Microsoft YaHei,Segoe UI,sans-serif" font-size="18" font-weight="700" fill="#fff" text-anchor="start" opacity="1"><tspan x="687" dy="0">2</tspan></text><rect x="738" y="458" width="156" height="18" rx="8" fill="#7f62ff" stroke="none" stroke-width="0" opacity="0.4" filter="url(#sh)"/><rect x="738" y="492" width="114" height="14" rx="7" fill="#dfe7ef" stroke="none" stroke-width="0" opacity="1" filter="url(#sh)"/><rect x="738" y="518" width="84" height="14" rx="7" fill="#dfe7ef" stroke="none" stroke-width="0" opacity="1" filter="url(#sh)"/><text x="738" y="552" font-family="Microsoft YaHei,Segoe UI,sans-serif" font-size="16" font-weight="500" fill="#1f3448" text-anchor="start" opacity="1"><tspan x="738" dy="0">?????????</tspan></text><rect x="654" y="582" width="282" height="130" rx="24" fill="rgba(236,242,248,.98)" stroke="rgba(210,224,236,.98)" stroke-width="1" opacity="1" filter="url(#sh)"/><rect x="672" y="602" width="50" height="34" rx="12" fill="#7f62ff" stroke="none" stroke-width="0" opacity="1" filter="url(#sh)"/><text x="687" y="625" font-family="Microsoft YaHei,Segoe UI,sans-serif" font-size="18" font-weight="700" fill="#fff" text-anchor="start" opacity="1"><tspan x="687" dy="0">3</tspan></text><rect x="738" y="606" width="156" height="18" rx="8" fill="#7f62ff" stroke="none" stroke-width="0" opacity="0.4" filter="url(#sh)"/><rect x="738" y="640" width="114" height="14" rx="7" fill="#dfe7ef" stroke="none" stroke-width="0" opacity="1" filter="url(#sh)"/><rect x="738" y="666" width="84" height="14" rx="7" fill="#dfe7ef" stroke="none" stroke-width="0" opacity="1" filter="url(#sh)"/><text x="738" y="700" font-family="Microsoft YaHei,Segoe UI,sans-serif" font-size="16" font-weight="500" fill="#1f3448" text-anchor="start" opacity="1"><tspan x="738" dy="0">????????</tspan></text><rect x="1150" y="190" width="330" height="670" rx="28" fill="rgba(17,42,67,.94)" stroke="rgba(255,255,255,.12)" stroke-width="1" opacity="1" filter="url(#sh)"/><rect x="1174" y="212" width="138" height="42" rx="16" fill="#f0b858" stroke="none" stroke-width="0" opacity="1" filter="url(#sh)"/><text x="1195" y="240" font-family="Microsoft YaHei,Segoe UI,sans-serif" font-size="24" font-weight="700" fill="#fff" text-anchor="start" opacity="1"><tspan x="1195" dy="0">??</tspan></text><rect x="1174" y="286" width="282" height="130" rx="24" fill="rgba(236,242,248,.98)" stroke="rgba(210,224,236,.98)" stroke-width="1" opacity="1" filter="url(#sh)"/><rect x="1192" y="306" width="50" height="34" rx="12" fill="#f0b858" stroke="none" stroke-width="0" opacity="1" filter="url(#sh)"/><text x="1207" y="329" font-family="Microsoft YaHei,Segoe UI,sans-serif" font-size="18" font-weight="700" fill="#fff" text-anchor="start" opacity="1"><tspan x="1207" dy="0">1</tspan></text><rect x="1258" y="310" width="156" height="18" rx="8" fill="#f0b858" stroke="none" stroke-width="0" opacity="0.4" filter="url(#sh)"/><rect x="1258" y="344" width="114" height="14" rx="7" fill="#dfe7ef" stroke="none" stroke-width="0" opacity="1" filter="url(#sh)"/><rect x="1258" y="370" width="84" height="14" rx="7" fill="#dfe7ef" stroke="none" stroke-width="0" opacity="1" filter="url(#sh)"/><text x="1258" y="404" font-family="Microsoft YaHei,Segoe UI,sans-serif" font-size="16" font-weight="500" fill="#1f3448" text-anchor="start" opacity="1"><tspan x="1258" dy="0">???????????</tspan></text><rect x="1174" y="434" width="282" height="130" rx="24" fill="rgba(236,242,248,.98)" stroke="rgba(210,224,236,.98)" stroke-width="1" opacity="1" filter="url(#sh)"/><rect x="1192" y="454" width="50" height="34" rx="12" fill="#f0b858" stroke="none" stroke-width="0" opacity="1" filter="url(#sh)"/><text x="1207" y="477" font-family="Microsoft YaHei,Segoe UI,sans-serif" font-size="18" font-weight="700" fill="#fff" text-anchor="start" opacity="1"><tspan x="1207" dy="0">2</tspan></text><rect x="1258" y="458" width="156" height="18" rx="8" fill="#f0b858" stroke="none" stroke-width="0" opacity="0.4" filter="url(#sh)"/><rect x="1258" y="492" width="114" height="14" rx="7" fill="#dfe7ef" stroke="none" stroke-width="0" opacity="1" filter="url(#sh)"/><rect x="1258" y="518" width="84" height="14" rx="7" fill="#dfe7ef" stroke="none" stroke-width="0" opacity="1" filter="url(#sh)"/><text x="1258" y="552" font-family="Microsoft YaHei,Segoe UI,sans-serif" font-size="16" font-weight="500" fill="#1f3448" text-anchor="start" opacity="1"><tspan x="1258" dy="0">??????</tspan></text><rect x="1174" y="582" width="282" height="130" rx="24" fill="rgba(236,242,248,.98)" stroke="rgba(210,224,236,.98)" stroke-width="1" opacity="1" filter="url(#sh)"/><rect x="1192" y="602" width="50" height="34" rx="12" fill="#f0b858" stroke="none" stroke-width="0" opacity="1" filter="url(#sh)"/><text x="1207" y="625" font-family="Microsoft YaHei,Segoe UI,sans-serif" font-size="18" font-weight="700" fill="#fff" text-anchor="start" opacity="1"><tspan x="1207" dy="0">3</tspan></text><rect x="1258" y="606" width="156" height="18" rx="8" fill="#f0b858" stroke="none" stroke-width="0" opacity="0.4" filter="url(#sh)"/><rect x="1258" y="640" width="114" height="14" rx="7" fill="#dfe7ef" stroke="none" stroke-width="0" opacity="1" filter="url(#sh)"/><rect x="1258" y="666" width="84" height="14" rx="7" fill="#dfe7ef" stroke="none" stroke-width="0" opacity="1" filter="url(#sh)"/><text x="1258" y="700" font-family="Microsoft YaHei,Segoe UI,sans-serif" font-size="16" font-weight="500" fill="#1f3448" text-anchor="start" opacity="1"><tspan x="1258" dy="0">????????</tspan></text><line x1="560" y1="540" x2="620" y2="540" stroke="#4adcff" stroke-width="8" stroke-linecap="round" opacity="1" filter="none"/><line x1="1080" y1="540" x2="1140" y2="540" stroke="#7f62ff" stroke-width="8" stroke-linecap="round" opacity="1" filter="none"/><text x="1510" y="106" font-family="Microsoft YaHei,Segoe UI,sans-serif" font-size="26" font-weight="700" fill="#fff" text-anchor="start" opacity="1"><tspan x="1510" dy="0">30 MIN</tspan></text><rect x="210" y="912" width="230" height="50" rx="999" fill="#4adcff" stroke="none" stroke-width="0" opacity="1" filter="url(#sh)"/><text x="325.0" y="952" font-family="Microsoft YaHei,Segoe UI,sans-serif" font-size="23.0" font-weight="700" fill="#fff" text-anchor="middle" opacity="1"><tspan x="325.0" dy="0">???</tspan></text><rect x="480" y="912" width="230" height="50" rx="999" fill="#7f62ff" stroke="none" stroke-width="0" opacity="1" filter="url(#sh)"/><text x="595.0" y="952" font-family="Microsoft YaHei,Segoe UI,sans-serif" font-size="23.0" font-weight="700" fill="#fff" text-anchor="middle" opacity="1"><tspan x="595.0" dy="0">????</tspan></text><rect x="750" y="912" width="230" height="50" rx="999" fill="#f0b858" stroke="none" stroke-width="0" opacity="1" filter="url(#sh)"/><text x="865.0" y="952" font-family="Microsoft YaHei,Segoe UI,sans-serif" font-size="23.0" font-weight="700" fill="#fff" text-anchor="middle" opacity="1"><tspan x="865.0" dy="0">???</tspan></text></svg>