<svg xmlns="http://www.w3.org/2000/svg" viewBox="0 0 1800 1000" width="1800" height="1000"><defs><linearGradient id="bg" x1="0" y1="0" x2="0" y2="1"><stop offset="0%" stop-color="#07121f"/><stop offset="100%" stop-color="#20476f"/></linearGradient><filter id="sh" x="-20%" y="-20%" width="140%" height="140%"><feDropShadow dx="0" dy="12" stdDeviation="16" flood-color="#000" flood-opacity=".35"/></filter><filter id="gl"><feGaussianBlur stdDeviation="18"/></filter></defs><rect width="100%" height="100%" fill="url(#bg)"/><line x1="0" y1="0" x2="0" y2="1000" stroke="rgba(255,255,255,.08)" stroke-width="1" stroke-linecap="round" opacity="0.25" filter="none"/><line x1="90" y1="0" x2="90" y2="1000" stroke="rgba(255,255,255,.08)" stroke-width="1" stroke-linecap="round" opacity="0.25" filter="none"/><line x1="180" y1="0" x2="180" y2="1000" stroke="rgba(255,255,255,.08)" stroke-width="1" stroke-linecap="round" opacity="0.25" filter="none"/><line x1="270" y1="0" x2="270" y2="1000" stroke="rgba(255,255,255,.08)" stroke-width="1" stroke-linecap="round" opacity="0.25" filter="none"/><line x1="360" y1="0" x2="360" y2="1000" stroke="rgba(255,255,255,.08)" stroke-width="1" stroke-linecap="round" opacity="0.25" filter="none"/><line x1="450" y1="0" x2="450" y2="1000" stroke="rgba(255,255,255,.08)" stroke-width="1" stroke-linecap="round" opacity="0.25" filter="none"/><line x1="540" y1="0" x2="540" y2="1000" stroke="rgba(255,255,255,.08)" stroke-width="1" stroke-linecap="round" opacity="0.25" filter="none"/><line x1="630" y1="0" x2="630" y2="1000" stroke="rgba(255,255,255,.08)" stroke-width="1" stroke-linecap="round" opacity="0.25" filter="none"/><line x1="720" y1="0" x2="720" y2="1000" stroke="rgba(255,255,255,.08)" stroke-width="1" stroke-linecap="round" opacity="0.25" filter="none"/><line x1="810" y1="0" x2="810" y2="1000" stroke="rgba(255,255,255,.08)" stroke-width="1" stroke-linecap="round" opacity="0.25" filter="none"/><line x1="900" y1="0" x2="900" y2="1000" stroke="rgba(255,255,255,.08)" stroke-width="1" stroke-linecap="round" opacity="0.25" filter="none"/><line x1="990" y1="0" x2="990" y2="1000" stroke="rgba(255,255,255,.08)" stroke-width="1" stroke-linecap="round" opacity="0.25" filter="none"/><line x1="1080" y1="0" x2="1080" y2="1000" stroke="rgba(255,255,255,.08)" stroke-width="1" stroke-linecap="round" opacity="0.25" filter="none"/><line x1="1170" y1="0" x2="1170" y2="1000" stroke="rgba(255,255,255,.08)" stroke-width="1" stroke-linecap="round" opacity="0.25" filter="none"/><line x1="1260" y1="0" x2="1260" y2="1000" stroke="rgba(255,255,255,.08)" stroke-width="1" stroke-linecap="round" opacity="0.25" filter="none"/><line x1="1350" y1="0" x2="1350" y2="1000" stroke="rgba(255,255,255,.08)" stroke-width="1" stroke-linecap="round" opacity="0.25" filter="none"/><line x1="1440" y1="0" x2="1440" y2="1000" stroke="rgba(255,255,255,.08)" stroke-width="1" stroke-linecap="round" opacity="0.25" filter="none"/><line x1="1530" y1="0" x2="1530" y2="1000" stroke="rgba(255,255,255,.08)" stroke-width="1" stroke-linecap="round" opacity="0.25" filter="none"/><line x1="1620" y1="0" x2="1620" y2="1000" stroke="rgba(255,255,255,.08)" stroke-width="1" stroke-linecap="round" opacity="0.25" filter="none"/><line x1="1710" y1="0" x2="1710" y2="1000" stroke="rgba(255,255,255,.08)" stroke-width="1" stroke-linecap="round" opacity="0.25" filter="none"/><line x1="0" y1="0" x2="1800" y2="0" stroke="rgba(255,255,255,.08)" stroke-width="1" stroke-linecap="round" opacity="0.2" filter="none"/><line x1="0" y1="90" x2="1800" y2="90" stroke="rgba(255,255,255,.08)" stroke-width="1" stroke-linecap="round" opacity="0.2" filter="none"/><line x1="0" y1="180" x2="1800" y2="180" stroke="rgba(255,255,255,.08)" stroke-width="1" stroke-linecap="round" opacity="0.2" filter="none"/><line x1="0" y1="270" x2="1800" y2="270" stroke="rgba(255,255,255,.08)" stroke-width="1" stroke-linecap="round" opacity="0.2" filter="none"/><line x1="0" y1="360" x2="1800" y2="360" stroke="rgba(255,255,255,.08)" stroke-width="1" stroke-linecap="round" opacity="0.2" filter="none"/><line x1="0" y1="450" x2="1800" y2="450" stroke="rgba(255,255,255,.08)" stroke-width="1" stroke-linecap="round" opacity="0.2" filter="none"/><line x1="0" y1="540" x2="1800" y2="540" stroke="rgba(255,255,255,.08)" stroke-width="1" stroke-linecap="round" opacity="0.2" filter="none"/><line x1="0" y1="630" x2="1800" y2="630" stroke="rgba(255,255,255,.08)" stroke-width="1" stroke-linecap="round" opacity="0.2" filter="none"/><line x1="0" y1="720" x2="1800" y2="720" stroke="rgba(255,255,255,.08)" stroke-width="1" stroke-linecap="round" opacity="0.2" filter="none"/><line x1="0" y1="810" x2="1800" y2="810" stroke="rgba(255,255,255,.08)" stroke-width="1" stroke-linecap="round" opacity="0.2" filter="none"/><line x1="0" y1="900" x2="1800" y2="900" stroke="rgba(255,255,255,.08)" stroke-width="1" stroke-linecap="round" opacity="0.2" filter="none"/><line x1="0" y1="990" x2="1800" y2="990" stroke="rgba(255,255,255,.08)" stroke-width="1" stroke-linecap="round" opacity="0.2" filter="none"/><circle cx="300" cy="250" r="240" fill="rgba(74,220,255,.25)" opacity="1" filter="none"/><circle cx="1510" cy="220" r="280" fill="rgba(127,98,255,.24)" opacity="1" filter="none"/><rect x="110" y="120" width="980" height="760" rx="34" fill="rgba(244,247,250,.98)" stroke="rgba(201,216,229,.95)" stroke-width="2" opacity="1" filter="url(#sh)"/><rect x="110" y="120" width="980" height="80" rx="34" fill="#3783ff" stroke="none" stroke-width="0" opacity="1" filter="url(#sh)"/><text x="160" y="175" font-family="Microsoft YaHei,Segoe UI,sans-serif" font-size="36" font-weight="700" fill="#fff" text-anchor="start" opacity="1"><tspan x="160" dy="0">?????</tspan></text><text x="160" y="238" font-family="Microsoft YaHei,Segoe UI,sans-serif" font-size="24" font-weight="600" fill="#1f3448" text-anchor="start" opacity="1"><tspan x="160" dy="0">????????? AI ???????</tspan></text><rect x="155" y="300" width="155" height="46" rx="999" fill="#4adcff" stroke="none" stroke-width="0" opacity="1" filter="url(#sh)"/><text x="232.5" y="336" font-family="Microsoft YaHei,Segoe UI,sans-serif" font-size="21.16" font-weight="700" fill="#fff" text-anchor="middle" opacity="1"><tspan x="232.5" dy="0">????</tspan></text><rect x="330" y="300" width="720" height="46" rx="16" fill="#e7eef5" stroke="none" stroke-width="0" opacity="1" filter="url(#sh)"/><text x="354" y="330" font-family="Microsoft YaHei,Segoe UI,sans-serif" font-size="20" font-weight="500" fill="#20384a" text-anchor="start" opacity="1"><tspan x="354" dy="0">?? 12 ????????????</tspan></text><rect x="155" y="392" width="155" height="46" rx="999" fill="#3783ff" stroke="none" stroke-width="0" opacity="1" filter="url(#sh)"/><text x="232.5" y="428" font-family="Microsoft YaHei,Segoe UI,sans-serif" font-size="21.16" font-weight="700" fill="#fff" text-anchor="middle" opacity="1"><tspan x="232.5" dy="0">????</tspan></text><rect x="330" y="392" width="720" height="46" rx="16" fill="#e7eef5" stroke="none" stroke-width="0" opacity="1" filter="url(#sh)"/><text x="354" y="422" font-family="Microsoft YaHei,Segoe UI,sans-serif" font-size="20" font-weight="500" fill="#20384a" text-anchor="start" opacity="1"><tspan x="354" dy="0">2025-07-01 ??</tspan></text><rect x="155" y="484" width="155" height="46" rx="999" fill="#7f62ff" stroke="none" stroke-width="0" opacity="1" filter="url(#sh)"/><text x="232.5" y="520" font-family="Microsoft YaHei,Segoe UI,sans-serif" font-size="21.16" font-weight="700" fill="#fff" text-anchor="middle" opacity="1"><tspan x="232.5" dy="0">?????</tspan></text><rect x="330" y="484" width="720" height="46" rx="16" fill="#e7eef5" stroke="none" stroke-width="0" opacity="1" filter="url(#sh)"/><text x="354" y="514" font-family="Microsoft YaHei,Segoe UI,sans-serif" font-size="20" font-weight="500" fill="#20384a" text-anchor="start" opacity="1"><tspan x="354" dy="0">?? &gt; ?? &gt; ?? &gt; ??</tspan></text><rect x="155" y="576" width="155" height="46" rx="999" fill="#f0b858" stroke="none" stroke-width="0" opacity="1" filter="url(#sh)"/><text x="232.5" y="612" font-family="Microsoft YaHei,Segoe UI,sans-serif" font-size="21.16" font-weight="700" fill="#fff" text-anchor="middle" opacity="1"><tspan x="232.5" dy="0">??</tspan></text><rect x="330" y="576" width="720" height="46" rx="16" fill="#e7eef5" stroke="none" stroke-width="0" opacity="1" filter="url(#sh)"/><text x="354" y="606" font-family="Microsoft YaHei,Segoe UI,sans-serif" font-size="20" font-weight="500" fill="#20384a" text-anchor="start" opacity="1"><tspan x="354" dy="0">800 ??? + 10 ??? + 3 ???</tspan></text><rect x="155" y="668" width="155" height="46" rx="999" fill="#57d4a8" stroke="none" stroke-width="0" opacity="1" filter="url(#sh)"/><text x="232.5" y="704" font-family="Microsoft YaHei,Segoe UI,sans-serif" font-size="21.16" font-weight="700" fill="#fff" text-anchor="middle" opacity="1"><tspan x="232.5" dy="0">??</tspan></text><rect x="330" y="668" width="720" height="46" rx="16" fill="#e7eef5" stroke="none" stroke-width="0" opacity="1" filter="url(#sh)"/><text x="354" y="698" font-family="Microsoft YaHei,Segoe UI,sans-serif" font-size="20" font-weight="500" fill="#20384a" text-anchor="start" opacity="1"><tspan x="354" dy="0">?????????</tspan></text><rect x="1205" y="170" width="430" height="190" rx="26" fill="rgba(13,24,38,.92)" stroke="rgba(255,255,255,.12)" stroke-width="1" opacity="1" filter="url(#sh)"/><rect x="1223" y="188" width="394" height="42" rx="16" fill="#4adcff" stroke="none" stroke-width="0" opacity="1" filter="url(#sh)"/><text x="1239" y="216" font-family="Microsoft YaHei,Segoe UI,sans-serif" font-size="24" font-weight="700" fill="#fff" text-anchor="start" opacity="1"><tspan x="1239" dy="0">SRC 01</tspan></text><rect x="1223" y="262" width="394" height="10" rx="5" fill="rgba(230,239,247,.95)" stroke="none" stroke-width="0" opacity="1" filter="url(#sh)"/><text x="1231" y="270" font-family="Microsoft YaHei,Segoe UI,sans-serif" font-size="17" font-weight="500" fill="#1f3448" text-anchor="start" opacity="1"><tspan x="1231" dy="0"></tspan></text><rect x="1223" y="286" width="394" height="10" rx="5" fill="rgba(230,239,247,.95)" stroke="none" stroke-width="0" opacity="1" filter="url(#sh)"/><text x="1231" y="294" font-family="Microsoft YaHei,Segoe UI,sans-serif" font-size="17" font-weight="500" fill="#1f3448" text-anchor="start" opacity="1"><tspan x="1231" dy="0"></tspan></text><rect x="1223" y="310" width="394" height="10" rx="5" fill="rgba(230,239,247,.95)" stroke="none" stroke-width="0" opacity="1" filter="url(#sh)"/><text x="1231" y="318" font-family="Microsoft YaHei,Segoe UI,sans-serif" font-size="17" font-weight="500" fill="#1f3448" text-anchor="start" opacity="1"><tspan x="1231" dy="0"></tspan></text><rect x="1380" y="340" width="430" height="190" rx="26" fill="rgba(13,24,38,.92)" stroke="rgba(255,255,255,.12)" stroke-width="1" opacity="1" filter="url(#sh)"/><rect x="1398" y="358" width="394" height="42" rx="16" fill="#7f62ff" stroke="none" stroke-width="0" opacity="1" filter="url(#sh)"/><text x="1414" y="386" font-family="Microsoft YaHei,Segoe UI,sans-serif" font-size="24" font-weight="700" fill="#fff" text-anchor="start" opacity="1"><tspan x="1414" dy="0">SRC 02</tspan></text><rect x="1398" y="432" width="394" height="10" rx="5" fill="rgba(230,239,247,.95)" stroke="none" stroke-width="0" opacity="1" filter="url(#sh)"/><text x="1406" y="440" font-family="Microsoft YaHei,Segoe UI,sans-serif" font-size="17" font-weight="500" fill="#1f3448" text-anchor="start" opacity="1"><tspan x="1406" dy="0"></tspan></text><rect x="1398" y="456" width="394" height="10" rx="5" fill="rgba(230,239,247,.95)" stroke="none" stroke-width="0" opacity="1" filter="url(#sh)"/><text x="1406" y="464" font-family="Microsoft YaHei,Segoe UI,sans-serif" font-size="17" font-weight="500" fill="#1f3448" text-anchor="start" opacity="1"><tspan x="1406" dy="0"></tspan></text><rect x="1398" y="480" width="394" height="10" rx="5" fill="rgba(230,239,247,.95)" stroke="none" stroke-width="0" opacity="1" filter="url(#sh)"/><text x="1406" y="488" font-family="Microsoft YaHei,Segoe UI,sans-serif" font-size="17" font-weight="500" fill="#1f3448" text-anchor="start" opacity="1"><tspan x="1406" dy="0"></tspan></text><rect x="1210" y="530" width="430" height="190" rx="26" fill="rgba(13,24,38,.92)" stroke="rgba(255,255,255,.12)" stroke-width="1" opacity="1" filter="url(#sh)"/><rect x="1228" y="548" width="394" height="42" rx="16" fill="#f0b858" stroke="none" stroke-width="0" opacity="1" filter="url(#sh)"/><text x="1244" y="576" font-family="Microsoft YaHei,Segoe UI,sans-serif" font-size="24" font-weight="700" fill="#fff" text-anchor="start" opacity="1"><tspan x="1244" dy="0">SRC 03</tspan></text><rect x="1228" y="622" width="394" height="10" rx="5" fill="rgba(230,239,247,.95)" stroke="none" stroke-width="0" opacity="1" filter="url(#sh)"/><text x="1236" y="630" font-family="Microsoft YaHei,Segoe UI,sans-serif" font-size="17" font-weight="500" fill="#1f3448" text-anchor="start" opacity="1"><tspan x="1236" dy="0"></tspan></text><rect x="1228" y="646" width="394" height="10" rx="5" fill="rgba(230,239,247,.95)" stroke="none" stroke-width="0" opacity="1" filter="url(#sh)"/><text x="1236" y="654" font-family="Microsoft YaHei,Segoe UI,sans-serif" font-size="17" font-weight="500" fill="#1f3448" text-anchor="start" opacity="1"><tspan x="1236" dy="0"></tspan></text><rect x="1228" y="670" width="394" height="10" rx="5" fill="rgba(230,239,247,.95)" stroke="none" stroke-width="0" opacity="1" filter="url(#sh)"/><text x="1236" y="678" font-family="Microsoft YaHei,Segoe UI,sans-serif" font-size="17" font-weight="500" fill="#1f3448" text-anchor="start" opacity="1"><tspan x="1236" dy="0"></tspan></text><circle cx="1470" cy="760" r="88" fill="rgba(74,220,255,.08)" opacity="1" filter="url(#gl)"/><circle cx="1470" cy="760" r="88" fill="none" opacity="1" filter="none"/><line x1="1528" y1="705" x2="1588" y2="655" stroke="#f0b858" stroke-width="10" stroke-linecap="round" opacity="1" filter="none"/></svg>