<svg xmlns="http://www.w3.org/2000/svg" viewBox="0 0 1800 1000" width="1800" height="1000"><defs><linearGradient id="bg" x1="0" y1="0" x2="0" y2="1"><stop offset="0%" stop-color="#07121f"/><stop offset="100%" stop-color="#1e3d63"/></linearGradient><filter id="sh" x="-20%" y="-20%" width="140%" height="140%"><feDropShadow dx="0" dy="12" stdDeviation="16" flood-color="#000" flood-opacity=".35"/></filter><filter id="gl"><feGaussianBlur stdDeviation="18"/></filter></defs><rect width="100%" height="100%" fill="url(#bg)"/><line x1="0" y1="0" x2="0" y2="1000" stroke="rgba(255,255,255,.08)" stroke-width="1" stroke-linecap="round" opacity="0.25" filter="none"/><line x1="90" y1="0" x2="90" y2="1000" stroke="rgba(255,255,255,.08)" stroke-width="1" stroke-linecap="round" opacity="0.25" filter="none"/><line x1="180" y1="0" x2="180" y2="1000" stroke="rgba(255,255,255,.08)" stroke-width="1" stroke-linecap="round" opacity="0.25" filter="none"/><line x1="270" y1="0" x2="270" y2="1000" stroke="rgba(255,255,255,.08)" stroke-width="1" stroke-linecap="round" opacity="0.25" filter="none"/><line x1="360" y1="0" x2="360" y2="1000" stroke="rgba(255,255,255,.08)" stroke-width="1" stroke-linecap="round" opacity="0.25" filter="none"/><line x1="450" y1="0" x2="450" y2="1000" stroke="rgba(255,255,255,.08)" stroke-width="1" stroke-linecap="round" opacity="0.25" filter="none"/><line x1="540" y1="0" x2="540" y2="1000" stroke="rgba(255,255,255,.08)" stroke-width="1" stroke-linecap="round" opacity="0.25" filter="none"/><line x1="630" y1="0" x2="630" y2="1000" stroke="rgba(255,255,255,.08)" stroke-width="1" stroke-linecap="round" opacity="0.25" filter="none"/><line x1="720" y1="0" x2="720" y2="1000" stroke="rgba(255,255,255,.08)" stroke-width="1" stroke-linecap="round" opacity="0.25" filter="none"/><line x1="810" y1="0" x2="810" y2="1000" stroke="rgba(255,255,255,.08)" stroke-width="1" stroke-linecap="round" opacity="0.25" filter="none"/><line x1="900" y1="0" x2="900" y2="1000" stroke="rgba(255,255,255,.08)" stroke-width="1" stroke-linecap="round" opacity="0.25" filter="none"/><line x1="990" y1="0" x2="990" y2="1000" stroke="rgba(255,255,255,.08)" stroke-width="1" stroke-linecap="round" opacity="0.25" filter="none"/><line x1="1080" y1="0" x2="1080" y2="1000" stroke="rgba(255,255,255,.08)" stroke-width="1" stroke-linecap="round" opacity="0.25" filter="none"/><line x1="1170" y1="0" x2="1170" y2="1000" stroke="rgba(255,255,255,.08)" stroke-width="1" stroke-linecap="round" opacity="0.25" filter="none"/><line x1="1260" y1="0" x2="1260" y2="1000" stroke="rgba(255,255,255,.08)" stroke-width="1" stroke-linecap="round" opacity="0.25" filter="none"/><line x1="1350" y1="0" x2="1350" y2="1000" stroke="rgba(255,255,255,.08)" stroke-width="1" stroke-linecap="round" opacity="0.25" filter="none"/><line x1="1440" y1="0" x2="1440" y2="1000" stroke="rgba(255,255,255,.08)" stroke-width="1" stroke-linecap="round" opacity="0.25" filter="none"/><line x1="1530" y1="0" x2="1530" y2="1000" stroke="rgba(255,255,255,.08)" stroke-width="1" stroke-linecap="round" opacity="0.25" filter="none"/><line x1="1620" y1="0" x2="1620" y2="1000" stroke="rgba(255,255,255,.08)" stroke-width="1" stroke-linecap="round" opacity="0.25" filter="none"/><line x1="1710" y1="0" x2="1710" y2="1000" stroke="rgba(255,255,255,.08)" stroke-width="1" stroke-linecap="round" opacity="0.25" filter="none"/><line x1="0" y1="0" x2="1800" y2="0" stroke="rgba(255,255,255,.08)" stroke-width="1" stroke-linecap="round" opacity="0.2" filter="none"/><line x1="0" y1="90" x2="1800" y2="90" stroke="rgba(255,255,255,.08)" stroke-width="1" stroke-linecap="round" opacity="0.2" filter="none"/><line x1="0" y1="180" x2="1800" y2="180" stroke="rgba(255,255,255,.08)" stroke-width="1" stroke-linecap="round" opacity="0.2" filter="none"/><line x1="0" y1="270" x2="1800" y2="270" stroke="rgba(255,255,255,.08)" stroke-width="1" stroke-linecap="round" opacity="0.2" filter="none"/><line x1="0" y1="360" x2="1800" y2="360" stroke="rgba(255,255,255,.08)" stroke-width="1" stroke-linecap="round" opacity="0.2" filter="none"/><line x1="0" y1="450" x2="1800" y2="450" stroke="rgba(255,255,255,.08)" stroke-width="1" stroke-linecap="round" opacity="0.2" filter="none"/><line x1="0" y1="540" x2="1800" y2="540" stroke="rgba(255,255,255,.08)" stroke-width="1" stroke-linecap="round" opacity="0.2" filter="none"/><line x1="0" y1="630" x2="1800" y2="630" stroke="rgba(255,255,255,.08)" stroke-width="1" stroke-linecap="round" opacity="0.2" filter="none"/><line x1="0" y1="720" x2="1800" y2="720" stroke="rgba(255,255,255,.08)" stroke-width="1" stroke-linecap="round" opacity="0.2" filter="none"/><line x1="0" y1="810" x2="1800" y2="810" stroke="rgba(255,255,255,.08)" stroke-width="1" stroke-linecap="round" opacity="0.2" filter="none"/><line x1="0" y1="900" x2="1800" y2="900" stroke="rgba(255,255,255,.08)" stroke-width="1" stroke-linecap="round" opacity="0.2" filter="none"/><line x1="0" y1="990" x2="1800" y2="990" stroke="rgba(255,255,255,.08)" stroke-width="1" stroke-linecap="round" opacity="0.2" filter="none"/><circle cx="420" cy="350" r="220" fill="rgba(74,220,255,.18)" opacity="1" filter="none"/><circle cx="790" cy="350" r="220" fill="rgba(127,98,255,.16)" opacity="1" filter="none"/><circle cx="1180" cy="350" r="220" fill="rgba(240,184,88,.14)" opacity="1" filter="none"/><rect x="120" y="130" width="1560" height="760" rx="34" fill="rgba(12,25,41,.92)" stroke="rgba(110,210,255,.14)" stroke-width="2" opacity="1" filter="url(#sh)"/><rect x="190" y="200" width="1420" height="610" rx="28" fill="rgba(8,16,27,.92)" stroke="rgba(150,220,255,.12)" stroke-width="1" opacity="1" filter="url(#sh)"/><rect x="290" y="260" width="230" height="350" rx="30" fill="rgba(243,247,251,.98)" stroke="#4adcff" stroke-width="2" opacity="1" filter="url(#sh)"/><rect x="320" y="286" width="170" height="48" rx="18" fill="#4adcff" stroke="none" stroke-width="0" opacity="1" filter="url(#sh)"/><text x="352" y="318" font-family="Microsoft YaHei,Segoe UI,sans-serif" font-size="24" font-weight="700" fill="#fff" text-anchor="start" opacity="1"><tspan x="352" dy="0">??</tspan></text><rect x="355" y="375" width="100" height="100" rx="28" fill="#e6eef4" stroke="none" stroke-width="0" opacity="1" filter="url(#sh)"/><rect x="342" y="500" width="126" height="30" rx="14" fill="#4adcff" stroke="none" stroke-width="0" opacity="1" filter="url(#sh)"/><rect x="342" y="548" width="126" height="24" rx="12" fill="#d5e2ec" stroke="none" stroke-width="0" opacity="1" filter="url(#sh)"/><rect x="342" y="590" width="80" height="22" rx="10" fill="#d5e2ec" stroke="none" stroke-width="0" opacity="1" filter="url(#sh)"/><rect x="650" y="260" width="230" height="350" rx="30" fill="rgba(243,247,251,.98)" stroke="#3783ff" stroke-width="2" opacity="1" filter="url(#sh)"/><rect x="680" y="286" width="170" height="48" rx="18" fill="#3783ff" stroke="none" stroke-width="0" opacity="1" filter="url(#sh)"/><text x="712" y="318" font-family="Microsoft YaHei,Segoe UI,sans-serif" font-size="24" font-weight="700" fill="#fff" text-anchor="start" opacity="1"><tspan x="712" dy="0">??</tspan></text><rect x="715" y="375" width="100" height="100" rx="28" fill="#e6eef4" stroke="none" stroke-width="0" opacity="1" filter="url(#sh)"/><rect x="702" y="500" width="126" height="30" rx="14" fill="#3783ff" stroke="none" stroke-width="0" opacity="1" filter="url(#sh)"/><rect x="702" y="548" width="126" height="24" rx="12" fill="#d5e2ec" stroke="none" stroke-width="0" opacity="1" filter="url(#sh)"/><rect x="702" y="590" width="80" height="22" rx="10" fill="#d5e2ec" stroke="none" stroke-width="0" opacity="1" filter="url(#sh)"/><rect x="1020" y="260" width="230" height="350" rx="30" fill="rgba(243,247,251,.98)" stroke="#7f62ff" stroke-width="2" opacity="1" filter="url(#sh)"/><rect x="1050" y="286" width="170" height="48" rx="18" fill="#7f62ff" stroke="none" stroke-width="0" opacity="1" filter="url(#sh)"/><text x="1082" y="318" font-family="Microsoft YaHei,Segoe UI,sans-serif" font-size="24" font-weight="700" fill="#fff" text-anchor="start" opacity="1"><tspan x="1082" dy="0">????</tspan></text><rect x="1085" y="375" width="100" height="100" rx="28" fill="#e6eef4" stroke="none" stroke-width="0" opacity="1" filter="url(#sh)"/><rect x="1072" y="500" width="126" height="30" rx="14" fill="#7f62ff" stroke="none" stroke-width="0" opacity="1" filter="url(#sh)"/><rect x="1072" y="548" width="126" height="24" rx="12" fill="#d5e2ec" stroke="none" stroke-width="0" opacity="1" filter="url(#sh)"/><rect x="1072" y="590" width="80" height="22" rx="10" fill="#d5e2ec" stroke="none" stroke-width="0" opacity="1" filter="url(#sh)"/><rect x="1390" y="260" width="230" height="350" rx="30" fill="rgba(243,247,251,.98)" stroke="#f0b858" stroke-width="2" opacity="1" filter="url(#sh)"/><rect x="1420" y="286" width="170" height="48" rx="18" fill="#f0b858" stroke="none" stroke-width="0" opacity="1" filter="url(#sh)"/><text x="1452" y="318" font-family="Microsoft YaHei,Segoe UI,sans-serif" font-size="24" font-weight="700" fill="#fff" text-anchor="start" opacity="1"><tspan x="1452" dy="0">??</tspan></text><rect x="1455" y="375" width="100" height="100" rx="28" fill="#e6eef4" stroke="none" stroke-width="0" opacity="1" filter="url(#sh)"/><rect x="1442" y="500" width="126" height="30" rx="14" fill="#f0b858" stroke="none" stroke-width="0" opacity="1" filter="url(#sh)"/><rect x="1442" y="548" width="126" height="24" rx="12" fill="#d5e2ec" stroke="none" stroke-width="0" opacity="1" filter="url(#sh)"/><rect x="1442" y="590" width="80" height="22" rx="10" fill="#d5e2ec" stroke="none" stroke-width="0" opacity="1" filter="url(#sh)"/><rect x="520" y="700" width="760" height="160" rx="26" fill="rgba(243,247,251,.98)" stroke="rgba(200,214,226,.98)" stroke-width="1" opacity="1" filter="url(#sh)"/><text x="575" y="770" font-family="Microsoft YaHei,Segoe UI,sans-serif" font-size="24" font-weight="700" fill="#1b3347" text-anchor="start" opacity="1"><tspan x="575" dy="0">???? 4 ?????????????????</tspan></text></svg>