<?xml version="1.0" encoding="UTF-8"?>
<svg xmlns="http://www.w3.org/2000/svg" width="1280" height="720" viewBox="0 0 1280 720">
<defs>
  <linearGradient id="bg" x1="0" y1="0" x2="1" y2="1"><stop offset="0" stop-color="#eef7ff"/><stop offset="0.55" stop-color="#f6fbf4"/><stop offset="1" stop-color="#fff7ed"/></linearGradient>
  <filter id="shadow" x="-20%" y="-20%" width="140%" height="140%"><feDropShadow dx="0" dy="10" stdDeviation="14" flood-color="#1f2937" flood-opacity="0.12"/></filter>
  <style>
    .title{font:700 44px 'Microsoft YaHei','PingFang SC',Arial,sans-serif;fill:#102033}.sub{font:400 22px 'Microsoft YaHei','PingFang SC',Arial,sans-serif;fill:#526173}.label{font:700 24px 'Microsoft YaHei','PingFang SC',Arial,sans-serif;fill:#172033}.small{font:400 18px 'Microsoft YaHei','PingFang SC',Arial,sans-serif;fill:#526173}.tiny{font:400 15px 'Microsoft YaHei','PingFang SC',Arial,sans-serif;fill:#667085}.code{font:500 18px Consolas,'Microsoft YaHei',monospace;fill:#243447}.card{fill:#fff;stroke:#e7edf3;stroke-width:1.5;filter:url(#shadow)}.pill{fill:#eff6ff;stroke:#bfdbfe}.green{fill:#ecfdf3;stroke:#bbf7d0}.orange{fill:#fff7ed;stroke:#fed7aa}.purple{fill:#f5f3ff;stroke:#ddd6fe}.dark{fill:#132238}.arrow{stroke:#6b7b8f;stroke-width:3;fill:none;marker-end:url(#arrow)}
  </style>
  <marker id="arrow" markerWidth="10" markerHeight="10" refX="8" refY="3" orient="auto"><path d="M0,0 L0,6 L9,3 z" fill="#6b7b8f"/></marker>
</defs>
<rect width="1280" height="720" fill="url(#bg)"/>
<circle cx="1100" cy="100" r="130" fill="#dbeafe" opacity="0.45"/>
<circle cx="160" cy="620" r="120" fill="#fed7aa" opacity="0.35"/>
<text x="70" y="82" class="title">AI 出题链路：把生成内容变成可用接口</text>
<text x="72" y="122" class="sub">Prompt 只是开始，解析、校验、重试和兜底才是上线关键</text>

 <rect x="85" y="250" width="150" height="105" rx="22" class="pill"/><text x="111" y="310" class="label">构建 Prompt</text><path d="M240 303 H270" class="arrow"/>
<rect x="275" y="250" width="150" height="105" rx="22" class="green"/><text x="301" y="310" class="label">调用模型</text><path d="M430 303 H460" class="arrow"/>
<rect x="465" y="250" width="150" height="105" rx="22" class="pill"/><text x="491" y="310" class="label">提取 JSON</text><path d="M620 303 H650" class="arrow"/>
<rect x="655" y="250" width="150" height="105" rx="22" class="green"/><text x="681" y="310" class="label">字段校验</text><path d="M810 303 H840" class="arrow"/>
<rect x="845" y="250" width="150" height="105" rx="22" class="pill"/><text x="871" y="310" class="label">失败重试</text><path d="M1000 303 H1030" class="arrow"/>
<rect x="1035" y="250" width="150" height="105" rx="22" class="green"/><text x="1061" y="310" class="label">返回题目</text>
 <rect x="140" y="450" width="1000" height="100" rx="24" class="card"/>
 <text x="185" y="492" class="label">校验点：题型、选项数量、答案格式、题干长度、重复题、儿童友好错误提示</text>
 <text x="185" y="527" class="small">线上不要把模型输出直接塞进页面，先让程序确认它能被孩子和家长安全使用。</text>
 
</svg>