<svg xmlns="http://www.w3.org/2000/svg" viewBox="0 0 2250 1000" width="2250" height="1000"><defs><linearGradient id="bg" x1="0" y1="0" x2="0" y2="1"><stop offset="0%" stop-color="#0a101a"/><stop offset="100%" stop-color="#273f5c"/></linearGradient><filter id="sh" x="-20%" y="-20%" width="140%" height="140%"><feDropShadow dx="0" dy="12" stdDeviation="16" flood-color="#000" flood-opacity=".35"/></filter><filter id="gl"><feGaussianBlur stdDeviation="18"/></filter></defs><rect width="100%" height="100%" fill="url(#bg)"/><line x1="0" y1="0" x2="0" y2="1000" stroke="rgba(255,255,255,.08)" stroke-width="1" stroke-linecap="round" opacity="0.25" filter="none"/><line x1="90" y1="0" x2="90" y2="1000" stroke="rgba(255,255,255,.08)" stroke-width="1" stroke-linecap="round" opacity="0.25" filter="none"/><line x1="180" y1="0" x2="180" y2="1000" stroke="rgba(255,255,255,.08)" stroke-width="1" stroke-linecap="round" opacity="0.25" filter="none"/><line x1="270" y1="0" x2="270" y2="1000" stroke="rgba(255,255,255,.08)" stroke-width="1" stroke-linecap="round" opacity="0.25" filter="none"/><line x1="360" y1="0" x2="360" y2="1000" stroke="rgba(255,255,255,.08)" stroke-width="1" stroke-linecap="round" opacity="0.25" filter="none"/><line x1="450" y1="0" x2="450" y2="1000" stroke="rgba(255,255,255,.08)" stroke-width="1" stroke-linecap="round" opacity="0.25" filter="none"/><line x1="540" y1="0" x2="540" y2="1000" stroke="rgba(255,255,255,.08)" stroke-width="1" stroke-linecap="round" opacity="0.25" filter="none"/><line x1="630" y1="0" x2="630" y2="1000" stroke="rgba(255,255,255,.08)" stroke-width="1" stroke-linecap="round" opacity="0.25" filter="none"/><line x1="720" y1="0" x2="720" y2="1000" stroke="rgba(255,255,255,.08)" stroke-width="1" stroke-linecap="round" opacity="0.25" filter="none"/><line x1="810" y1="0" x2="810" y2="1000" stroke="rgba(255,255,255,.08)" stroke-width="1" stroke-linecap="round" opacity="0.25" filter="none"/><line x1="900" y1="0" x2="900" y2="1000" stroke="rgba(255,255,255,.08)" stroke-width="1" stroke-linecap="round" opacity="0.25" filter="none"/><line x1="990" y1="0" x2="990" y2="1000" stroke="rgba(255,255,255,.08)" stroke-width="1" stroke-linecap="round" opacity="0.25" filter="none"/><line x1="1080" y1="0" x2="1080" y2="1000" stroke="rgba(255,255,255,.08)" stroke-width="1" stroke-linecap="round" opacity="0.25" filter="none"/><line x1="1170" y1="0" x2="1170" y2="1000" stroke="rgba(255,255,255,.08)" stroke-width="1" stroke-linecap="round" opacity="0.25" filter="none"/><line x1="1260" y1="0" x2="1260" y2="1000" stroke="rgba(255,255,255,.08)" stroke-width="1" stroke-linecap="round" opacity="0.25" filter="none"/><line x1="1350" y1="0" x2="1350" y2="1000" stroke="rgba(255,255,255,.08)" stroke-width="1" stroke-linecap="round" opacity="0.25" filter="none"/><line x1="1440" y1="0" x2="1440" y2="1000" stroke="rgba(255,255,255,.08)" stroke-width="1" stroke-linecap="round" opacity="0.25" filter="none"/><line x1="1530" y1="0" x2="1530" y2="1000" stroke="rgba(255,255,255,.08)" stroke-width="1" stroke-linecap="round" opacity="0.25" filter="none"/><line x1="1620" y1="0" x2="1620" y2="1000" stroke="rgba(255,255,255,.08)" stroke-width="1" stroke-linecap="round" opacity="0.25" filter="none"/><line x1="1710" y1="0" x2="1710" y2="1000" stroke="rgba(255,255,255,.08)" stroke-width="1" stroke-linecap="round" opacity="0.25" filter="none"/><line x1="1800" y1="0" x2="1800" y2="1000" stroke="rgba(255,255,255,.08)" stroke-width="1" stroke-linecap="round" opacity="0.25" filter="none"/><line x1="1890" y1="0" x2="1890" y2="1000" stroke="rgba(255,255,255,.08)" stroke-width="1" stroke-linecap="round" opacity="0.25" filter="none"/><line x1="1980" y1="0" x2="1980" y2="1000" stroke="rgba(255,255,255,.08)" stroke-width="1" stroke-linecap="round" opacity="0.25" filter="none"/><line x1="2070" y1="0" x2="2070" y2="1000" stroke="rgba(255,255,255,.08)" stroke-width="1" stroke-linecap="round" opacity="0.25" filter="none"/><line x1="2160" y1="0" x2="2160" y2="1000" stroke="rgba(255,255,255,.08)" stroke-width="1" stroke-linecap="round" opacity="0.25" filter="none"/><line x1="0" y1="0" x2="2250" y2="0" stroke="rgba(255,255,255,.08)" stroke-width="1" stroke-linecap="round" opacity="0.2" filter="none"/><line x1="0" y1="90" x2="2250" y2="90" stroke="rgba(255,255,255,.08)" stroke-width="1" stroke-linecap="round" opacity="0.2" filter="none"/><line x1="0" y1="180" x2="2250" y2="180" stroke="rgba(255,255,255,.08)" stroke-width="1" stroke-linecap="round" opacity="0.2" filter="none"/><line x1="0" y1="270" x2="2250" y2="270" stroke="rgba(255,255,255,.08)" stroke-width="1" stroke-linecap="round" opacity="0.2" filter="none"/><line x1="0" y1="360" x2="2250" y2="360" stroke="rgba(255,255,255,.08)" stroke-width="1" stroke-linecap="round" opacity="0.2" filter="none"/><line x1="0" y1="450" x2="2250" y2="450" stroke="rgba(255,255,255,.08)" stroke-width="1" stroke-linecap="round" opacity="0.2" filter="none"/><line x1="0" y1="540" x2="2250" y2="540" stroke="rgba(255,255,255,.08)" stroke-width="1" stroke-linecap="round" opacity="0.2" filter="none"/><line x1="0" y1="630" x2="2250" y2="630" stroke="rgba(255,255,255,.08)" stroke-width="1" stroke-linecap="round" opacity="0.2" filter="none"/><line x1="0" y1="720" x2="2250" y2="720" stroke="rgba(255,255,255,.08)" stroke-width="1" stroke-linecap="round" opacity="0.2" filter="none"/><line x1="0" y1="810" x2="2250" y2="810" stroke="rgba(255,255,255,.08)" stroke-width="1" stroke-linecap="round" opacity="0.2" filter="none"/><line x1="0" y1="900" x2="2250" y2="900" stroke="rgba(255,255,255,.08)" stroke-width="1" stroke-linecap="round" opacity="0.2" filter="none"/><line x1="0" y1="990" x2="2250" y2="990" stroke="rgba(255,255,255,.08)" stroke-width="1" stroke-linecap="round" opacity="0.2" filter="none"/><circle cx="300" cy="300" r="260" fill="rgba(249,134,76,.24)" opacity="1" filter="none"/><circle cx="900" cy="280" r="240" fill="rgba(64,232,194,.20)" opacity="1" filter="none"/><circle cx="1690" cy="400" r="360" fill="rgba(86,164,255,.24)" opacity="1" filter="none"/><rect x="90" y="150" width="830" height="700" rx="40" fill="rgba(12,22,34,.56)" stroke="rgba(64,232,194,.12)" stroke-width="2" opacity="1" filter="url(#sh)"/><circle cx="280" cy="355" r="100" fill="rgba(249,134,76,.10)" opacity="1" filter="url(#gl)"/><circle cx="280" cy="355" r="80" fill="none" opacity="1" filter="none"/><circle cx="280" cy="330" r="20" fill="#e8eef6" opacity="1" filter="none"/><circle cx="330" cy="330" r="20" fill="#e8eef6" opacity="1" filter="none"/><rect x="255" y="375" width="50" height="36" rx="18" fill="#40e8c2" stroke="none" stroke-width="0" opacity="1" filter="url(#sh)"/><rect x="470" y="250" width="170" height="118" rx="26" fill="rgba(13,24,38,.92)" stroke="rgba(255,255,255,.12)" stroke-width="1" opacity="1" filter="url(#sh)"/><rect x="488" y="268" width="134" height="42" rx="16" fill="#56a4ff" stroke="none" stroke-width="0" opacity="1" filter="url(#sh)"/><text x="504" y="296" font-family="Microsoft YaHei,Segoe UI,sans-serif" font-size="24" font-weight="700" fill="#fff" text-anchor="start" opacity="1"><tspan x="504" dy="0">IDEA</tspan></text><rect x="488" y="342" width="134" height="10" rx="5" fill="rgba(230,239,247,.95)" stroke="none" stroke-width="0" opacity="1" filter="url(#sh)"/><text x="496" y="350" font-family="Microsoft YaHei,Segoe UI,sans-serif" font-size="17" font-weight="500" fill="#1f3448" text-anchor="start" opacity="1"><tspan x="496" dy="0"></tspan></text><rect x="488" y="366" width="134" height="10" rx="5" fill="rgba(230,239,247,.95)" stroke="none" stroke-width="0" opacity="1" filter="url(#sh)"/><text x="496" y="374" font-family="Microsoft YaHei,Segoe UI,sans-serif" font-size="17" font-weight="500" fill="#1f3448" text-anchor="start" opacity="1"><tspan x="496" dy="0"></tspan></text><rect x="488" y="390" width="134" height="10" rx="5" fill="rgba(230,239,247,.95)" stroke="none" stroke-width="0" opacity="1" filter="url(#sh)"/><text x="496" y="398" font-family="Microsoft YaHei,Segoe UI,sans-serif" font-size="17" font-weight="500" fill="#1f3448" text-anchor="start" opacity="1"><tspan x="496" dy="0"></tspan></text><rect x="640" y="190" width="170" height="118" rx="26" fill="rgba(13,24,38,.92)" stroke="rgba(255,255,255,.12)" stroke-width="1" opacity="1" filter="url(#sh)"/><rect x="658" y="208" width="134" height="42" rx="16" fill="#40e8c2" stroke="none" stroke-width="0" opacity="1" filter="url(#sh)"/><text x="674" y="236" font-family="Microsoft YaHei,Segoe UI,sans-serif" font-size="24" font-weight="700" fill="#fff" text-anchor="start" opacity="1"><tspan x="674" dy="0">PROMPT</tspan></text><rect x="658" y="282" width="134" height="10" rx="5" fill="rgba(230,239,247,.95)" stroke="none" stroke-width="0" opacity="1" filter="url(#sh)"/><text x="666" y="290" font-family="Microsoft YaHei,Segoe UI,sans-serif" font-size="17" font-weight="500" fill="#1f3448" text-anchor="start" opacity="1"><tspan x="666" dy="0"></tspan></text><rect x="658" y="306" width="134" height="10" rx="5" fill="rgba(230,239,247,.95)" stroke="none" stroke-width="0" opacity="1" filter="url(#sh)"/><text x="666" y="314" font-family="Microsoft YaHei,Segoe UI,sans-serif" font-size="17" font-weight="500" fill="#1f3448" text-anchor="start" opacity="1"><tspan x="666" dy="0"></tspan></text><rect x="658" y="330" width="134" height="10" rx="5" fill="rgba(230,239,247,.95)" stroke="none" stroke-width="0" opacity="1" filter="url(#sh)"/><text x="666" y="338" font-family="Microsoft YaHei,Segoe UI,sans-serif" font-size="17" font-weight="500" fill="#1f3448" text-anchor="start" opacity="1"><tspan x="666" dy="0"></tspan></text><rect x="810" y="285" width="170" height="118" rx="26" fill="rgba(13,24,38,.92)" stroke="rgba(255,255,255,.12)" stroke-width="1" opacity="1" filter="url(#sh)"/><rect x="828" y="303" width="134" height="42" rx="16" fill="#f9864c" stroke="none" stroke-width="0" opacity="1" filter="url(#sh)"/><text x="844" y="331" font-family="Microsoft YaHei,Segoe UI,sans-serif" font-size="24" font-weight="700" fill="#fff" text-anchor="start" opacity="1"><tspan x="844" dy="0">BUILD</tspan></text><rect x="828" y="377" width="134" height="10" rx="5" fill="rgba(230,239,247,.95)" stroke="none" stroke-width="0" opacity="1" filter="url(#sh)"/><text x="836" y="385" font-family="Microsoft YaHei,Segoe UI,sans-serif" font-size="17" font-weight="500" fill="#1f3448" text-anchor="start" opacity="1"><tspan x="836" dy="0"></tspan></text><rect x="828" y="401" width="134" height="10" rx="5" fill="rgba(230,239,247,.95)" stroke="none" stroke-width="0" opacity="1" filter="url(#sh)"/><text x="836" y="409" font-family="Microsoft YaHei,Segoe UI,sans-serif" font-size="17" font-weight="500" fill="#1f3448" text-anchor="start" opacity="1"><tspan x="836" dy="0"></tspan></text><rect x="828" y="425" width="134" height="10" rx="5" fill="rgba(230,239,247,.95)" stroke="none" stroke-width="0" opacity="1" filter="url(#sh)"/><text x="836" y="433" font-family="Microsoft YaHei,Segoe UI,sans-serif" font-size="17" font-weight="500" fill="#1f3448" text-anchor="start" opacity="1"><tspan x="836" dy="0"></tspan></text><rect x="640" y="485" width="170" height="118" rx="26" fill="rgba(13,24,38,.92)" stroke="rgba(255,255,255,.12)" stroke-width="1" opacity="1" filter="url(#sh)"/><rect x="658" y="503" width="134" height="42" rx="16" fill="#e05e92" stroke="none" stroke-width="0" opacity="1" filter="url(#sh)"/><text x="674" y="531" font-family="Microsoft YaHei,Segoe UI,sans-serif" font-size="24" font-weight="700" fill="#fff" text-anchor="start" opacity="1"><tspan x="674" dy="0">TEST</tspan></text><rect x="658" y="577" width="134" height="10" rx="5" fill="rgba(230,239,247,.95)" stroke="none" stroke-width="0" opacity="1" filter="url(#sh)"/><text x="666" y="585" font-family="Microsoft YaHei,Segoe UI,sans-serif" font-size="17" font-weight="500" fill="#1f3448" text-anchor="start" opacity="1"><tspan x="666" dy="0"></tspan></text><rect x="658" y="601" width="134" height="10" rx="5" fill="rgba(230,239,247,.95)" stroke="none" stroke-width="0" opacity="1" filter="url(#sh)"/><text x="666" y="609" font-family="Microsoft YaHei,Segoe UI,sans-serif" font-size="17" font-weight="500" fill="#1f3448" text-anchor="start" opacity="1"><tspan x="666" dy="0"></tspan></text><rect x="658" y="625" width="134" height="10" rx="5" fill="rgba(230,239,247,.95)" stroke="none" stroke-width="0" opacity="1" filter="url(#sh)"/><text x="666" y="633" font-family="Microsoft YaHei,Segoe UI,sans-serif" font-size="17" font-weight="500" fill="#1f3448" text-anchor="start" opacity="1"><tspan x="666" dy="0"></tspan></text><line x1="380" y1="355" x2="470" y2="310" stroke="#40e8c2" stroke-width="6" stroke-linecap="round" opacity="1" filter="none"/><line x1="725" y1="310" x2="810" y2="342" stroke="#f9864c" stroke-width="6" stroke-linecap="round" opacity="1" filter="none"/><line x1="895" y1="343" x2="805" y2="485" stroke="#e05e92" stroke-width="6" stroke-linecap="round" opacity="1" filter="none"/><rect x="1180" y="120" width="930" height="760" rx="36" fill="rgba(10,18,29,.92)" stroke="rgba(86,164,255,.16)" stroke-width="2" opacity="1" filter="url(#sh)"/><rect x="1225" y="168" width="840" height="58" rx="16" fill="#1e3046" stroke="none" stroke-width="0" opacity="1" filter="url(#sh)"/><circle cx="1254" cy="187" r="8" fill="#f9864c" opacity="1" filter="none"/><circle cx="1284" cy="187" r="8" fill="#40e8c2" opacity="1" filter="none"/><circle cx="1314" cy="187" r="8" fill="#56a4ff" opacity="1" filter="none"/><rect x="1250" y="262" width="630" height="16" rx="8" fill="#40e8c2" stroke="none" stroke-width="0" opacity="1" filter="url(#sh)"/><rect x="1290" y="320" width="720" height="16" rx="8" fill="#56a4ff" stroke="none" stroke-width="0" opacity="1" filter="url(#sh)"/><rect x="1250" y="378" width="540" height="16" rx="8" fill="#f9864c" stroke="none" stroke-width="0" opacity="1" filter="url(#sh)"/><rect x="1290" y="436" width="650" height="16" rx="8" fill="#e05e92" stroke="none" stroke-width="0" opacity="1" filter="url(#sh)"/><rect x="1250" y="494" width="470" height="16" rx="8" fill="#40e8c2" stroke="none" stroke-width="0" opacity="1" filter="url(#sh)"/><rect x="1290" y="552" width="760" height="16" rx="8" fill="#56a4ff" stroke="none" stroke-width="0" opacity="1" filter="url(#sh)"/><rect x="1470" y="585" width="540" height="235" rx="28" fill="rgba(239,244,249,.98)" stroke="rgba(215,226,236,.9)" stroke-width="2" opacity="1" filter="url(#sh)"/><rect x="1500" y="616" width="500" height="34" rx="14" fill="#56a4ff" stroke="none" stroke-width="0" opacity="1" filter="url(#sh)"/><rect x="1518" y="649" width="48" height="56" rx="10" fill="#40e8c2" stroke="none" stroke-width="0" opacity="1" filter="url(#sh)"/><rect x="1610" y="597" width="48" height="108" rx="10" fill="#56a4ff" stroke="none" stroke-width="0" opacity="1" filter="url(#sh)"/><rect x="1702" y="621" width="48" height="84" rx="10" fill="#f9864c" stroke="none" stroke-width="0" opacity="1" filter="url(#sh)"/><rect x="1794" y="565" width="48" height="140" rx="10" fill="#e05e92" stroke="none" stroke-width="0" opacity="1" filter="url(#sh)"/><rect x="1886" y="613" width="48" height="92" rx="10" fill="#56a4ff" stroke="none" stroke-width="0" opacity="1" filter="url(#sh)"/><rect x="1700" y="854" width="330" height="56" rx="999" fill="#40e8c2" stroke="none" stroke-width="0" opacity="1" filter="url(#sh)"/><text x="1865.0" y="900" font-family="Microsoft YaHei,Segoe UI,sans-serif" font-size="25.76" font-weight="700" fill="#fff" text-anchor="middle" opacity="1"><tspan x="1865.0" dy="0">FROM IDEA TO TOOL</tspan></text></svg>