<svg xmlns="http://www.w3.org/2000/svg" viewBox="0 0 1800 1000" width="1800" height="1000"><defs><linearGradient id="bg" x1="0" y1="0" x2="0" y2="1"><stop offset="0%" stop-color="#0a101a"/><stop offset="100%" stop-color="#213752"/></linearGradient><filter id="sh" x="-20%" y="-20%" width="140%" height="140%"><feDropShadow dx="0" dy="12" stdDeviation="16" flood-color="#000" flood-opacity=".35"/></filter><filter id="gl"><feGaussianBlur stdDeviation="18"/></filter></defs><rect width="100%" height="100%" fill="url(#bg)"/><line x1="0" y1="0" x2="0" y2="1000" stroke="rgba(255,255,255,.08)" stroke-width="1" stroke-linecap="round" opacity="0.25" filter="none"/><line x1="90" y1="0" x2="90" y2="1000" stroke="rgba(255,255,255,.08)" stroke-width="1" stroke-linecap="round" opacity="0.25" filter="none"/><line x1="180" y1="0" x2="180" y2="1000" stroke="rgba(255,255,255,.08)" stroke-width="1" stroke-linecap="round" opacity="0.25" filter="none"/><line x1="270" y1="0" x2="270" y2="1000" stroke="rgba(255,255,255,.08)" stroke-width="1" stroke-linecap="round" opacity="0.25" filter="none"/><line x1="360" y1="0" x2="360" y2="1000" stroke="rgba(255,255,255,.08)" stroke-width="1" stroke-linecap="round" opacity="0.25" filter="none"/><line x1="450" y1="0" x2="450" y2="1000" stroke="rgba(255,255,255,.08)" stroke-width="1" stroke-linecap="round" opacity="0.25" filter="none"/><line x1="540" y1="0" x2="540" y2="1000" stroke="rgba(255,255,255,.08)" stroke-width="1" stroke-linecap="round" opacity="0.25" filter="none"/><line x1="630" y1="0" x2="630" y2="1000" stroke="rgba(255,255,255,.08)" stroke-width="1" stroke-linecap="round" opacity="0.25" filter="none"/><line x1="720" y1="0" x2="720" y2="1000" stroke="rgba(255,255,255,.08)" stroke-width="1" stroke-linecap="round" opacity="0.25" filter="none"/><line x1="810" y1="0" x2="810" y2="1000" stroke="rgba(255,255,255,.08)" stroke-width="1" stroke-linecap="round" opacity="0.25" filter="none"/><line x1="900" y1="0" x2="900" y2="1000" stroke="rgba(255,255,255,.08)" stroke-width="1" stroke-linecap="round" opacity="0.25" filter="none"/><line x1="990" y1="0" x2="990" y2="1000" stroke="rgba(255,255,255,.08)" stroke-width="1" stroke-linecap="round" opacity="0.25" filter="none"/><line x1="1080" y1="0" x2="1080" y2="1000" stroke="rgba(255,255,255,.08)" stroke-width="1" stroke-linecap="round" opacity="0.25" filter="none"/><line x1="1170" y1="0" x2="1170" y2="1000" stroke="rgba(255,255,255,.08)" stroke-width="1" stroke-linecap="round" opacity="0.25" filter="none"/><line x1="1260" y1="0" x2="1260" y2="1000" stroke="rgba(255,255,255,.08)" stroke-width="1" stroke-linecap="round" opacity="0.25" filter="none"/><line x1="1350" y1="0" x2="1350" y2="1000" stroke="rgba(255,255,255,.08)" stroke-width="1" stroke-linecap="round" opacity="0.25" filter="none"/><line x1="1440" y1="0" x2="1440" y2="1000" stroke="rgba(255,255,255,.08)" stroke-width="1" stroke-linecap="round" opacity="0.25" filter="none"/><line x1="1530" y1="0" x2="1530" y2="1000" stroke="rgba(255,255,255,.08)" stroke-width="1" stroke-linecap="round" opacity="0.25" filter="none"/><line x1="1620" y1="0" x2="1620" y2="1000" stroke="rgba(255,255,255,.08)" stroke-width="1" stroke-linecap="round" opacity="0.25" filter="none"/><line x1="1710" y1="0" x2="1710" y2="1000" stroke="rgba(255,255,255,.08)" stroke-width="1" stroke-linecap="round" opacity="0.25" filter="none"/><line x1="0" y1="0" x2="1800" y2="0" stroke="rgba(255,255,255,.08)" stroke-width="1" stroke-linecap="round" opacity="0.2" filter="none"/><line x1="0" y1="90" x2="1800" y2="90" stroke="rgba(255,255,255,.08)" stroke-width="1" stroke-linecap="round" opacity="0.2" filter="none"/><line x1="0" y1="180" x2="1800" y2="180" stroke="rgba(255,255,255,.08)" stroke-width="1" stroke-linecap="round" opacity="0.2" filter="none"/><line x1="0" y1="270" x2="1800" y2="270" stroke="rgba(255,255,255,.08)" stroke-width="1" stroke-linecap="round" opacity="0.2" filter="none"/><line x1="0" y1="360" x2="1800" y2="360" stroke="rgba(255,255,255,.08)" stroke-width="1" stroke-linecap="round" opacity="0.2" filter="none"/><line x1="0" y1="450" x2="1800" y2="450" stroke="rgba(255,255,255,.08)" stroke-width="1" stroke-linecap="round" opacity="0.2" filter="none"/><line x1="0" y1="540" x2="1800" y2="540" stroke="rgba(255,255,255,.08)" stroke-width="1" stroke-linecap="round" opacity="0.2" filter="none"/><line x1="0" y1="630" x2="1800" y2="630" stroke="rgba(255,255,255,.08)" stroke-width="1" stroke-linecap="round" opacity="0.2" filter="none"/><line x1="0" y1="720" x2="1800" y2="720" stroke="rgba(255,255,255,.08)" stroke-width="1" stroke-linecap="round" opacity="0.2" filter="none"/><line x1="0" y1="810" x2="1800" y2="810" stroke="rgba(255,255,255,.08)" stroke-width="1" stroke-linecap="round" opacity="0.2" filter="none"/><line x1="0" y1="900" x2="1800" y2="900" stroke="rgba(255,255,255,.08)" stroke-width="1" stroke-linecap="round" opacity="0.2" filter="none"/><line x1="0" y1="990" x2="1800" y2="990" stroke="rgba(255,255,255,.08)" stroke-width="1" stroke-linecap="round" opacity="0.2" filter="none"/><rect x="110" y="130" width="1580" height="750" rx="34" fill="rgba(13,22,34,.92)" stroke="rgba(86,164,255,.14)" stroke-width="2" opacity="1" filter="url(#sh)"/><rect x="170" y="180" width="1460" height="70" rx="22" fill="#1b2a3d" stroke="none" stroke-width="0" opacity="1" filter="url(#sh)"/><text x="220" y="228" font-family="Microsoft YaHei,Segoe UI,sans-serif" font-size="36" font-weight="700" fill="#fff" text-anchor="start" opacity="1"><tspan x="220" dy="0">???????? 4 ???</tspan></text><rect x="220" y="330" width="600" height="190" rx="26" fill="rgba(13,24,38,.92)" stroke="rgba(255,255,255,.12)" stroke-width="1" opacity="1" filter="url(#sh)"/><rect x="238" y="348" width="564" height="42" rx="16" fill="#f9864c" stroke="none" stroke-width="0" opacity="1" filter="url(#sh)"/><text x="254" y="376" font-family="Microsoft YaHei,Segoe UI,sans-serif" font-size="24" font-weight="700" fill="#fff" text-anchor="start" opacity="1"><tspan x="254" dy="0">????</tspan></text><rect x="238" y="422" width="564" height="10" rx="5" fill="rgba(230,239,247,.95)" stroke="none" stroke-width="0" opacity="1" filter="url(#sh)"/><text x="246" y="430" font-family="Microsoft YaHei,Segoe UI,sans-serif" font-size="17" font-weight="500" fill="#1f3448" text-anchor="start" opacity="1"><tspan x="246" dy="0">?????????</tspan></text><rect x="238" y="446" width="564" height="10" rx="5" fill="rgba(230,239,247,.95)" stroke="none" stroke-width="0" opacity="1" filter="url(#sh)"/><text x="246" y="454" font-family="Microsoft YaHei,Segoe UI,sans-serif" font-size="17" font-weight="500" fill="#1f3448" text-anchor="start" opacity="1"><tspan x="246" dy="0"></tspan></text><rect x="238" y="470" width="564" height="10" rx="5" fill="rgba(230,239,247,.95)" stroke="none" stroke-width="0" opacity="1" filter="url(#sh)"/><text x="246" y="478" font-family="Microsoft YaHei,Segoe UI,sans-serif" font-size="17" font-weight="500" fill="#1f3448" text-anchor="start" opacity="1"><tspan x="246" dy="0"></tspan></text><rect x="650" y="450" width="140" height="40" rx="16" fill="#d4dfea" stroke="none" stroke-width="0" opacity="1" filter="url(#sh)"/><text x="676" y="478" font-family="Microsoft YaHei,Segoe UI,sans-serif" font-size="16" font-weight="700" fill="#f9864c" text-anchor="start" opacity="1"><tspan x="676" dy="0">VERIFY</tspan></text><rect x="950" y="330" width="600" height="190" rx="26" fill="rgba(13,24,38,.92)" stroke="rgba(255,255,255,.12)" stroke-width="1" opacity="1" filter="url(#sh)"/><rect x="968" y="348" width="564" height="42" rx="16" fill="#40e8c2" stroke="none" stroke-width="0" opacity="1" filter="url(#sh)"/><text x="984" y="376" font-family="Microsoft YaHei,Segoe UI,sans-serif" font-size="24" font-weight="700" fill="#fff" text-anchor="start" opacity="1"><tspan x="984" dy="0">????</tspan></text><rect x="968" y="422" width="564" height="10" rx="5" fill="rgba(230,239,247,.95)" stroke="none" stroke-width="0" opacity="1" filter="url(#sh)"/><text x="976" y="430" font-family="Microsoft YaHei,Segoe UI,sans-serif" font-size="17" font-weight="500" fill="#1f3448" text-anchor="start" opacity="1"><tspan x="976" dy="0">3 ?????????</tspan></text><rect x="968" y="446" width="564" height="10" rx="5" fill="rgba(230,239,247,.95)" stroke="none" stroke-width="0" opacity="1" filter="url(#sh)"/><text x="976" y="454" font-family="Microsoft YaHei,Segoe UI,sans-serif" font-size="17" font-weight="500" fill="#1f3448" text-anchor="start" opacity="1"><tspan x="976" dy="0"></tspan></text><rect x="968" y="470" width="564" height="10" rx="5" fill="rgba(230,239,247,.95)" stroke="none" stroke-width="0" opacity="1" filter="url(#sh)"/><text x="976" y="478" font-family="Microsoft YaHei,Segoe UI,sans-serif" font-size="17" font-weight="500" fill="#1f3448" text-anchor="start" opacity="1"><tspan x="976" dy="0"></tspan></text><rect x="1380" y="450" width="140" height="40" rx="16" fill="#d4dfea" stroke="none" stroke-width="0" opacity="1" filter="url(#sh)"/><text x="1406" y="478" font-family="Microsoft YaHei,Segoe UI,sans-serif" font-size="16" font-weight="700" fill="#40e8c2" text-anchor="start" opacity="1"><tspan x="1406" dy="0">VERIFY</tspan></text><rect x="220" y="575" width="600" height="190" rx="26" fill="rgba(13,24,38,.92)" stroke="rgba(255,255,255,.12)" stroke-width="1" opacity="1" filter="url(#sh)"/><rect x="238" y="593" width="564" height="42" rx="16" fill="#56a4ff" stroke="none" stroke-width="0" opacity="1" filter="url(#sh)"/><text x="254" y="621" font-family="Microsoft YaHei,Segoe UI,sans-serif" font-size="24" font-weight="700" fill="#fff" text-anchor="start" opacity="1"><tspan x="254" dy="0">????</tspan></text><rect x="238" y="667" width="564" height="10" rx="5" fill="rgba(230,239,247,.95)" stroke="none" stroke-width="0" opacity="1" filter="url(#sh)"/><text x="246" y="675" font-family="Microsoft YaHei,Segoe UI,sans-serif" font-size="17" font-weight="500" fill="#1f3448" text-anchor="start" opacity="1"><tspan x="246" dy="0">????????????</tspan></text><rect x="238" y="691" width="564" height="10" rx="5" fill="rgba(230,239,247,.95)" stroke="none" stroke-width="0" opacity="1" filter="url(#sh)"/><text x="246" y="699" font-family="Microsoft YaHei,Segoe UI,sans-serif" font-size="17" font-weight="500" fill="#1f3448" text-anchor="start" opacity="1"><tspan x="246" dy="0"></tspan></text><rect x="238" y="715" width="564" height="10" rx="5" fill="rgba(230,239,247,.95)" stroke="none" stroke-width="0" opacity="1" filter="url(#sh)"/><text x="246" y="723" font-family="Microsoft YaHei,Segoe UI,sans-serif" font-size="17" font-weight="500" fill="#1f3448" text-anchor="start" opacity="1"><tspan x="246" dy="0"></tspan></text><rect x="650" y="695" width="140" height="40" rx="16" fill="#d4dfea" stroke="none" stroke-width="0" opacity="1" filter="url(#sh)"/><text x="676" y="723" font-family="Microsoft YaHei,Segoe UI,sans-serif" font-size="16" font-weight="700" fill="#56a4ff" text-anchor="start" opacity="1"><tspan x="676" dy="0">VERIFY</tspan></text><rect x="950" y="575" width="600" height="190" rx="26" fill="rgba(13,24,38,.92)" stroke="rgba(255,255,255,.12)" stroke-width="1" opacity="1" filter="url(#sh)"/><rect x="968" y="593" width="564" height="42" rx="16" fill="#e05e92" stroke="none" stroke-width="0" opacity="1" filter="url(#sh)"/><text x="984" y="621" font-family="Microsoft YaHei,Segoe UI,sans-serif" font-size="24" font-weight="700" fill="#fff" text-anchor="start" opacity="1"><tspan x="984" dy="0">?? / ??</tspan></text><rect x="968" y="667" width="564" height="10" rx="5" fill="rgba(230,239,247,.95)" stroke="none" stroke-width="0" opacity="1" filter="url(#sh)"/><text x="976" y="675" font-family="Microsoft YaHei,Segoe UI,sans-serif" font-size="17" font-weight="500" fill="#1f3448" text-anchor="start" opacity="1"><tspan x="976" dy="0">???????????</tspan></text><rect x="968" y="691" width="564" height="10" rx="5" fill="rgba(230,239,247,.95)" stroke="none" stroke-width="0" opacity="1" filter="url(#sh)"/><text x="976" y="699" font-family="Microsoft YaHei,Segoe UI,sans-serif" font-size="17" font-weight="500" fill="#1f3448" text-anchor="start" opacity="1"><tspan x="976" dy="0"></tspan></text><rect x="968" y="715" width="564" height="10" rx="5" fill="rgba(230,239,247,.95)" stroke="none" stroke-width="0" opacity="1" filter="url(#sh)"/><text x="976" y="723" font-family="Microsoft YaHei,Segoe UI,sans-serif" font-size="17" font-weight="500" fill="#1f3448" text-anchor="start" opacity="1"><tspan x="976" dy="0"></tspan></text><rect x="1380" y="695" width="140" height="40" rx="16" fill="#d4dfea" stroke="none" stroke-width="0" opacity="1" filter="url(#sh)"/><text x="1406" y="723" font-family="Microsoft YaHei,Segoe UI,sans-serif" font-size="16" font-weight="700" fill="#e05e92" text-anchor="start" opacity="1"><tspan x="1406" dy="0">VERIFY</tspan></text><line x1="820" y1="290" x2="820" y2="870" stroke="#40e8c2" stroke-width="4" stroke-linecap="round" opacity="1" filter="none"/><circle cx="820" cy="330" r="10" fill="#fff" opacity="1" filter="none"/><circle cx="820" cy="575" r="10" fill="#fff" opacity="1" filter="none"/></svg>